<svg width="871.0642578124999px" height="120.8px" xmlns="http://www.w3.org/2000/svg" viewBox="-185.53212890624997 14.600000000000001 871.0642578124999 120.8" style="background: rgba(0, 0, 0, 0);" preserveAspectRatio="xMidYMid"><defs><filter id="editing-vr"><feFlood flood-color="#f00" flood-opacity="0.7" result="c1"></feFlood><feFlood flood-color="#00f" flood-opacity="0.7" result="c3"></feFlood><feComposite operator="in" in="c1" in2="SourceAlpha" result="text-c1"></feComposite><feComposite operator="in" in="c3" in2="SourceAlpha" result="text-c3"></feComposite><feOffset in="text-c1" dx="5" dy="-1" result="text1"></feOffset><feOffset in="text-c3" dx="-5" dy="1" result="text3"></feOffset><feBlend in="SourceGraphic" in2="text1" mode="multiply" result="text4"></feBlend><feBlend in="text4" in2="text3" mode="multiply"></feBlend></filter></defs><g filter="url(#editing-vr)"><g transform="translate(-61.66608214378357, 97.46500015258789)"><path d="M28.42-9.86L28.42-9.86L28.42-9.86Q29.63-8.32 29.63-5.82L29.63-5.82L29.63-5.82Q29.63-2.37 27.07-0.54L27.07-0.54L27.07-0.54Q24.51 1.28 20.48 1.28L20.48 1.28L20.48 1.28Q18.18 1.28 14.66 0.77L14.66 0.77L14.66 0.77Q7.74-0.32 5.63-0.32L5.63-0.32L5.63-0.32Q3.52-0.32 2.69-0.22L2.69-0.22L2.69-0.22Q1.86-0.13 0.51 0L0.51 0L8.38-42.24L35.97-42.24L35.97-42.24Q35.97-38.34 34.08-36.29L34.08-36.29L34.08-36.29Q32.19-34.24 28.48-34.24L28.48-34.24L28.48-34.24Q24.77-34.24 20.99-35.97L20.99-35.97L19.01-24.77L30.40-24.77L30.40-24.77Q30.40-21.38 28.74-19.49L28.74-19.49L28.74-19.49Q27.07-17.60 24.29-17.60L24.29-17.60L24.29-17.60Q21.50-17.60 19.78-18.24L19.78-18.24L19.78-18.24Q18.05-18.88 17.86-19.07L17.86-19.07L15.55-6.98L15.55-6.98Q17.09-6.78 19.97-6.78L19.97-6.78L19.97-6.78Q24.90-6.78 28.42-9.86ZM77.06-26.56L77.06-26.56L77.06-26.56Q77.06 0.70 47.49 0.70L47.49 0.70L47.49 0.70Q42.75 0.70 34.94-0.45L34.94-0.45L42.11-38.27L42.11-38.27Q42.62-40.83 42.94-42.30L42.94-42.30L42.94-42.30Q52.67-43.01 56.99-43.01L56.99-43.01L56.99-43.01Q61.31-43.01 65.28-42.11L65.28-42.11L65.28-42.11Q69.25-41.22 71.87-39.23L71.87-39.23L71.87-39.23Q77.06-35.33 77.06-26.56ZM63.87-28.93L63.87-28.93L63.87-28.93Q63.87-38.46 57.02-38.46L57.02-38.46L56.38-38.46L56.38-38.46Q56.06-38.46 55.74-38.40L55.74-38.40L49.15-4.03L49.15-4.03Q49.41-3.90 49.66-3.90L49.66-3.90L50.18-3.90L50.18-3.90Q52.54-3.90 55.01-5.38L55.01-5.38L55.01-5.38Q57.47-6.85 59.39-9.86L59.39-9.86L59.39-9.86Q63.87-16.83 63.87-28.93ZM93.57 0L79.62 0L87.74-42.24L101.82-42.24L93.57 0ZM108.35-31.17L108.35-31.17L108.35-31.17Q106.18-32.83 106.18-36.38L106.18-36.38L106.18-36.38Q106.18-39.94 108.51-41.79L108.51-41.79L108.51-41.79Q110.85-43.65 114.88-43.65L114.88-43.65L114.88-43.65Q117.44-43.65 123.52-42.75L123.52-42.75L127.87-42.11L127.87-42.11Q130.05-41.86 132.32-41.86L132.32-41.86L132.32-41.86Q134.59-41.86 136.13-42.82L136.13-42.82L136.13-42.82Q138.43-40.77 138.43-37.82L138.43-37.82L138.43-37.82Q138.43-34.88 135.81-32.77L135.81-32.77L135.81-32.77Q133.12-30.53 129.66-30.53L129.66-30.53L129.66-30.53Q128-30.53 125.31-30.98L125.31-30.98L125.31-30.98Q122.18-21.12 122.18-14.27L122.18-14.27L122.18-14.27Q122.18-7.42 125.63-3.84L125.63-3.84L125.63-3.84Q124.03-0.96 121.66 0.16L121.66 0.16L121.66 0.16Q119.30 1.28 115.74 1.28L115.74 1.28L115.74 1.28Q112.19 1.28 109.98-0.67L109.98-0.67L109.98-0.67Q107.78-2.62 107.78-6.66L107.78-6.66L107.78-6.66Q107.78-11.33 110.34-19.01L110.34-19.01L110.34-19.01Q112.90-26.62 116.74-32.45L116.74-32.45L116.74-32.45Q114.88-32.64 112.96-32.64L112.96-32.64L112.96-32.64Q108.99-32.64 108.35-31.17ZM177.66 1.28L177.66 1.28L177.66 1.28Q169.47 1.28 168.70-10.37L168.70-10.37L157.70-10.37L157.70-10.37Q156.42-7.42 155.52-4.86L155.52-4.86L153.86 0L144.90 0L165.06-42.24L178.82-42.24L181.50-11.14L181.50-11.14Q182.14-4.42 184.70-2.43L184.70-2.43L184.70-2.43Q182.85 1.28 177.66 1.28ZM163.20-23.17L159.68-15.04L168.51-15.04L167.74-31.49L167.74-33.22L163.20-23.17ZM229.95-26.56L229.95-26.56L229.95-26.56Q229.95 0.70 200.38 0.70L200.38 0.70L200.38 0.70Q195.65 0.70 187.84-0.45L187.84-0.45L195.01-38.27L195.01-38.27Q195.52-40.83 195.84-42.30L195.84-42.30L195.84-42.30Q205.57-43.01 209.89-43.01L209.89-43.01L209.89-43.01Q214.21-43.01 218.18-42.11L218.18-42.11L218.18-42.11Q222.14-41.22 224.77-39.23L224.77-39.23L224.77-39.23Q229.95-35.33 229.95-26.56ZM216.77-28.93L216.77-28.93L216.77-28.93Q216.77-38.46 209.92-38.46L209.92-38.46L209.28-38.46L209.28-38.46Q208.96-38.46 208.64-38.40L208.64-38.40L202.05-4.03L202.05-4.03Q202.30-3.90 202.56-3.90L202.56-3.90L203.07-3.90L203.07-3.90Q205.44-3.90 207.90-5.38L207.90-5.38L207.90-5.38Q210.37-6.85 212.29-9.86L212.29-9.86L212.29-9.86Q216.77-16.83 216.77-28.93ZM238.66 0L231.30 0L242.88-42.24L256.26-42.24L259.20-18.11L271.10-42.24L282.30-42.24L283.46-10.62L283.46-10.62Q283.71-4.35 286.78-2.43L286.78-2.43L286.78-2.43Q286.08-1.15 284.03 0.06L284.03 0.06L284.03 0.06Q281.98 1.28 279.26 1.28L279.26 1.28L279.26 1.28Q276.54 1.28 274.94 0.51L274.94 0.51L274.94 0.51Q273.34-0.26 272.45-1.54L272.45-1.54L272.45-1.54Q270.85-3.84 270.85-8.26L270.85-8.26L270.85-28.03L258.24 0L250.30 0L245.82-28.74L238.66 0ZM302.78 0L288.83 0L296.96-42.24L311.04-42.24L302.78 0ZM319.04 0L312.00 0L319.68-42.24L333.44-42.24L343.42-13.18L348.74-42.24L355.84-42.18L348.03 0L333.38 0L324.16-27.97L319.04 0ZM395.65-42.69L395.65-42.69L395.65-42.69Q411.33-42.69 411.33-31.62L411.33-31.62L411.33-31.62Q411.33-25.54 407.42-21.89L407.42-21.89L407.42-21.89Q403.58-18.24 396.86-18.24L396.86-18.24L396.86-18.24Q393.73-18.24 391.30-20.03L391.30-20.03L391.30-20.03Q390.14-20.80 389.38-21.82L389.38-21.82L389.38-21.82Q394.05-21.82 396.51-24.67L396.51-24.67L396.51-24.67Q398.98-27.52 398.98-33.09L398.98-33.09L398.98-33.09Q398.98-38.66 393.47-38.66L393.47-38.66L391.94-38.66L391.94-38.66Q391.55-38.66 391.23-38.59L391.23-38.59L383.87 0L369.98 0L377.86-41.92L377.86-41.92Q384.70-42.56 388.67-42.62L388.67-42.62L388.67-42.62Q392.64-42.69 395.65-42.69ZM424.77 0L411.07 0L418.88-42.05L418.88-42.05Q425.22-42.75 434.46-42.75L434.46-42.75L434.46-42.75Q443.71-42.75 448-40.06L448-40.06L448-40.06Q452.29-37.38 452.29-31.97L452.29-31.97L452.29-31.97Q452.29-26.56 449.50-23.17L449.50-23.17L449.50-23.17Q446.72-19.78 441.92-18.69L441.92-18.69L441.92-18.69Q443.01-13.38 445.50-9.09L445.50-9.09L445.50-9.09Q447.81-5.06 450.50-3.78L450.50-3.78L450.50-3.78Q449.54-1.09 447.58 0.10L447.58 0.10L447.58 0.10Q445.63 1.28 442.85 1.28L442.85 1.28L442.85 1.28Q440.06 1.28 437.89-0.35L437.89-0.35L437.89-0.35Q435.71-1.98 433.98-4.99L433.98-4.99L433.98-4.99Q430.34-11.52 429.95-21.82L429.95-21.82L430.40-21.82L430.40-21.82Q435.14-21.95 437.50-24.42L437.50-24.42L437.50-24.42Q439.87-26.88 439.87-32.06L439.87-32.06L439.87-32.06Q439.87-38.53 434.43-38.78L434.43-38.78L433.02-38.78L433.02-38.78Q432.45-38.78 432.13-38.72L432.13-38.72L424.77 0ZM456.19-15.62L456.19-15.62L456.19-15.62Q456.19-27.71 462.46-35.33L462.46-35.33L462.46-35.33Q469.12-43.58 480.70-43.58L480.70-43.58L480.70-43.58Q489.09-43.58 493.31-39.52L493.31-39.52L493.31-39.52Q497.54-35.46 497.54-26.88L497.54-26.88L497.54-26.88Q497.54-13.82 490.88-6.21L490.88-6.21L490.88-6.21Q484.29 1.28 473.22 1.28L473.22 1.28L473.22 1.28Q464.58 1.28 460.38-3.04L460.38-3.04L460.38-3.04Q456.19-7.36 456.19-15.62ZM473.02-28.86L473.02-28.86L473.02-28.86Q470.14-17.34 470.14-8.26L470.14-8.26L470.14-8.26Q470.14-6.08 470.88-4.67L470.88-4.67L470.88-4.67Q471.62-3.26 473.57-3.26L473.57-3.26L473.57-3.26Q475.52-3.26 476.74-4.19L476.74-4.19L476.74-4.19Q477.95-5.12 478.91-7.23L478.91-7.23L478.91-7.23Q480.45-10.69 481.89-18.02L481.89-18.02L481.89-18.02Q483.33-25.34 483.46-28.38L483.46-28.38L483.46-28.38Q483.58-31.42 483.58-33.73L483.58-33.73L483.58-33.73Q483.58-36.03 482.88-37.50L482.88-37.50L482.88-37.50Q482.18-38.98 480.29-38.98L480.29-38.98L480.29-38.98Q478.40-38.98 477.12-37.82L477.12-37.82L477.12-37.82Q474.75-35.65 473.02-28.86ZM529.79-33.92L529.79-33.92L529.79-33.92Q524.61-33.92 520.83-35.65L520.83-35.65L518.78-25.28L531.14-25.28L531.14-25.28Q531.14-21.89 529.44-19.74L529.44-19.74L529.44-19.74Q527.74-17.60 524.67-17.60L524.67-17.60L524.67-17.60Q521.34-17.60 518.27-18.82L518.27-18.82L518.27-18.82Q517.63-19.07 517.57-19.14L517.57-19.14L513.92 0L499.97 0L508.10-42.24L536.64-42.24L536.64-42.24Q536.64-38.34 534.82-36.13L534.82-36.13L534.82-36.13Q532.99-33.92 529.79-33.92ZM548.29 0L534.34 0L542.46-42.24L556.54-42.24L548.29 0ZM584.70-9.86L584.70-9.86L584.70-9.86Q585.92-8.32 585.92-5.34L585.92-5.34L585.92-5.34Q585.92-2.37 583.65-0.54L583.65-0.54L583.65-0.54Q581.38 1.28 577.41 1.28L577.41 1.28L577.41 1.28Q575.10 1.28 571.52 0.77L571.52 0.77L571.52 0.77Q564.48-0.32 562.46-0.32L562.46-0.32L562.46-0.32Q560.45-0.32 559.62-0.22L559.62-0.22L559.62-0.22Q558.78-0.13 557.44 0L557.44 0L565.18-42.24L579.20-42.24L572.80-7.04L572.80-7.04Q573.63-6.91 574.40-6.91L574.40-6.91L576-6.91L576-6.91Q581.38-6.91 584.70-9.86ZM617.54-9.86L617.54-9.86L617.54-9.86Q618.75-8.32 618.75-5.82L618.75-5.82L618.75-5.82Q618.75-2.37 616.19-0.54L616.19-0.54L616.19-0.54Q613.63 1.28 609.60 1.28L609.60 1.28L609.60 1.28Q607.30 1.28 603.78 0.77L603.78 0.77L603.78 0.77Q596.86-0.32 594.75-0.32L594.75-0.32L594.75-0.32Q592.64-0.32 591.81-0.22L591.81-0.22L591.81-0.22Q590.98-0.13 589.63 0L589.63 0L597.50-42.24L625.09-42.24L625.09-42.24Q625.09-38.34 623.20-36.29L623.20-36.29L623.20-36.29Q621.31-34.24 617.60-34.24L617.60-34.24L617.60-34.24Q613.89-34.24 610.11-35.97L610.11-35.97L608.13-24.77L619.52-24.77L619.52-24.77Q619.52-21.38 617.86-19.49L617.86-19.49L617.86-19.49Q616.19-17.60 613.41-17.60L613.41-17.60L613.41-17.60Q610.62-17.60 608.90-18.24L608.90-18.24L608.90-18.24Q607.17-18.88 606.98-19.07L606.98-19.07L604.67-6.98L604.67-6.98Q606.21-6.78 609.09-6.78L609.09-6.78L609.09-6.78Q614.02-6.78 617.54-9.86Z" fill="#444"></path></g></g><style>text {
  font-size: 64px;
  font-family: Arial Black;
  dominant-baseline: central;
  text-anchor: middle;
}</style></svg>