<svg width="372.19989013671875px" height="123.68002929687499px" xmlns="http://www.w3.org/2000/svg" viewBox="63.900054931640625 13.159985351562504 372.19989013671875 123.68002929687499" style="background: rgba(168, 56, 56, 0);" preserveAspectRatio="xMidYMid"><defs><filter id="editing-jagged" x="-100%" y="-100%" width="300%" height="300%"><feTurbulence result="turb" baseFrequency="0.1" numOctaves="1" seed="1"></feTurbulence><feDisplacementMap in="SourceGraphic" in2="turb" scale="10"></feDisplacementMap></filter></defs><g filter="url(#editing-jagged)"><g transform="translate(120.8521237373352, 97.75000381469727)"><path d="M14.43 0L0.52 0L8.45-42.70L8.45-42.70Q14.88-43.42 24.28-43.42L24.28-43.42L24.28-43.42Q33.67-43.42 38.02-40.69L38.02-40.69L38.02-40.69Q42.38-37.96 42.38-32.47L42.38-32.47L42.38-32.47Q42.38-26.98 39.55-23.53L39.55-23.53L39.55-23.53Q36.73-20.09 31.85-18.98L31.85-18.98L31.85-18.98Q32.95-13.59 35.49-9.23L35.49-9.23L35.49-9.23Q37.83-5.13 40.56-3.83L40.56-3.83L40.56-3.83Q39.59-1.10 37.60 0.10L37.60 0.10L37.60 0.10Q35.62 1.30 32.79 1.30L32.79 1.30L32.79 1.30Q29.96 1.30 27.76-0.36L27.76-0.36L27.76-0.36Q25.55-2.02 23.79-5.07L23.79-5.07L23.79-5.07Q20.09-11.70 19.70-22.16L19.70-22.16L20.15-22.16L20.15-22.16Q24.96-22.30 27.37-24.80L27.37-24.80L27.37-24.80Q29.77-27.30 29.77-32.56L29.77-32.56L29.77-32.56Q29.77-39.13 24.25-39.39L24.25-39.39L22.82-39.39L22.82-39.39Q22.23-39.39 21.91-39.33L21.91-39.33L14.43 0ZM73.13-10.01L73.13-10.01L73.13-10.01Q74.36-8.45 74.36-5.92L74.36-5.92L74.36-5.92Q74.36-2.41 71.76-0.55L71.76-0.55L71.76-0.55Q69.16 1.30 65.06 1.30L65.06 1.30L65.06 1.30Q62.73 1.30 59.15 0.78L59.15 0.78L59.15 0.78Q52.13-0.33 49.98-0.33L49.98-0.33L49.98-0.33Q47.84-0.33 46.99-0.23L46.99-0.23L46.99-0.23Q46.15-0.13 44.79 0L44.79 0L52.78-42.90L80.80-42.90L80.80-42.90Q80.80-38.94 78.88-36.86L78.88-36.86L78.88-36.86Q76.96-34.77 73.19-34.77L73.19-34.77L73.19-34.77Q69.42-34.77 65.59-36.53L65.59-36.53L63.57-25.16L75.14-25.16L75.14-25.16Q75.14-21.71 73.45-19.79L73.45-19.79L73.45-19.79Q71.76-17.88 68.93-17.88L68.93-17.88L68.93-17.88Q66.11-17.88 64.35-18.53L64.35-18.53L64.35-18.53Q62.59-19.18 62.40-19.37L62.40-19.37L60.06-7.08L60.06-7.08Q61.62-6.89 64.55-6.89L64.55-6.89L64.55-6.89Q69.55-6.89 73.13-10.01ZM114.27-13.46L114.27-13.46L114.27-13.46Q115.96-12.22 115.96-9.59L115.96-9.59L115.96-9.59Q115.96-6.96 114.82-5.10L114.82-5.10L114.82-5.10Q113.69-3.25 111.47-1.82L111.47-1.82L111.47-1.82Q106.73 1.24 98.44 1.24L98.44 1.24L98.44 1.24Q90.16 1.24 85.64-3.09L85.64-3.09L85.64-3.09Q81.12-7.41 81.12-15.08L81.12-15.08L81.12-15.08Q81.12-25.94 86.78-34.19L86.78-34.19L86.78-34.19Q91.06-40.30 98.73-42.90L98.73-42.90L98.73-42.90Q102.70-44.20 106.60-44.20L106.60-44.20L106.60-44.20Q110.50-44.20 112.91-43.68L112.91-43.68L112.91-43.68Q115.31-43.16 117.13-42.12L117.13-42.12L117.13-42.12Q121.09-39.84 121.09-36.20L121.09-36.20L121.09-36.20Q121.09-32.89 117.97-30.42L117.97-30.42L117.97-30.42Q115.12-28.21 112.78-28.21L112.78-28.21L112.78-28.21Q110.44-28.21 109.46-28.54L109.46-28.54L109.46-28.54Q109.72-30.88 109.72-32.40L109.72-32.40L109.72-32.40Q109.72-33.93 109.66-35.04L109.66-35.04L109.66-35.04Q109.59-36.14 109.27-37.18L109.27-37.18L109.27-37.18Q108.62-39.59 106.63-39.59L106.63-39.59L106.63-39.59Q104.65-39.59 102.67-37.73L102.67-37.73L102.67-37.73Q100.69-35.88 99.00-32.76L99.00-32.76L99.00-32.76Q95.16-25.68 95.16-17.29L95.16-17.29L95.16-17.29Q95.16-13.26 97.44-10.95L97.44-10.95L97.44-10.95Q99.71-8.64 104.59-8.64L104.59-8.64L104.59-8.64Q108.22-8.64 111.67-11.05L111.67-11.05L111.67-11.05Q113.16-12.09 114.27-13.46ZM134.81 0L120.64 0L128.90-42.90L143.19-42.90L134.81 0ZM170.04-43.36L170.04-43.36L170.04-43.36Q185.97-43.36 185.97-32.11L185.97-32.11L185.97-32.11Q185.97-25.94 182-22.23L182-22.23L182-22.23Q178.10-18.53 171.28-18.53L171.28-18.53L171.28-18.53Q168.09-18.53 165.62-20.35L165.62-20.35L165.62-20.35Q164.45-21.13 163.67-22.16L163.67-22.16L163.67-22.16Q168.42-22.16 170.92-25.06L170.92-25.06L170.92-25.06Q173.42-27.95 173.42-33.61L173.42-33.61L173.42-33.61Q173.42-39.26 167.83-39.26L167.83-39.26L166.27-39.26L166.27-39.26Q165.88-39.26 165.56-39.20L165.56-39.20L158.08 0L143.98 0L151.97-42.58L151.97-42.58Q158.93-43.23 162.96-43.29L162.96-43.29L162.96-43.29Q166.99-43.36 170.04-43.36ZM214.05-10.01L214.05-10.01L214.05-10.01Q215.28-8.45 215.28-5.92L215.28-5.92L215.28-5.92Q215.28-2.41 212.68-0.55L212.68-0.55L212.68-0.55Q210.08 1.30 205.99 1.30L205.99 1.30L205.99 1.30Q203.65 1.30 200.07 0.78L200.07 0.78L200.07 0.78Q193.05-0.33 190.91-0.33L190.91-0.33L190.91-0.33Q188.76-0.33 187.91-0.23L187.91-0.23L187.91-0.23Q187.07-0.13 185.71 0L185.71 0L193.70-42.90L221.72-42.90L221.72-42.90Q221.72-38.94 219.80-36.86L219.80-36.86L219.80-36.86Q217.88-34.77 214.11-34.77L214.11-34.77L214.11-34.77Q210.34-34.77 206.50-36.53L206.50-36.53L204.49-25.16L216.06-25.16L216.06-25.16Q216.06-21.71 214.37-19.79L214.37-19.79L214.37-19.79Q212.68-17.88 209.85-17.88L209.85-17.88L209.85-17.88Q207.03-17.88 205.27-18.53L205.27-18.53L205.27-18.53Q203.52-19.18 203.32-19.37L203.32-19.37L200.98-7.08L200.98-7.08Q202.54-6.89 205.47-6.89L205.47-6.89L205.47-6.89Q210.47-6.89 214.05-10.01ZM246.61-30.03L246.61-30.03L246.61-30.03Q247.59-31.98 247.59-33.80L247.59-33.80L247.59-33.80Q247.59-35.62 247.39-36.63L247.39-36.63L247.39-36.63Q247.19-37.63 246.74-38.41L246.74-38.41L246.74-38.41Q245.76-40.11 243.81-40.11L243.81-40.11L243.81-40.11Q241.41-40.11 239.46-38.35L239.46-38.35L239.46-38.35Q237.38-36.53 237.38-33.67L237.38-33.67L237.38-33.67Q237.38-31.85 238.65-30.45L238.65-30.45L238.65-30.45Q239.91-29.05 241.87-27.76L241.87-27.76L241.87-27.76Q243.81-26.46 246.03-25.16L246.03-25.16L246.03-25.16Q248.24-23.86 250.19-22.30L250.19-22.30L250.19-22.30Q254.67-18.72 254.67-13.91L254.67-13.91L254.67-13.91Q254.67-10.66 252.95-7.90L252.95-7.90L252.95-7.90Q251.22-5.13 248.37-3.12L248.37-3.12L248.37-3.12Q242.13 1.30 233.87 1.30L233.87 1.30L233.87 1.30Q227.18 1.30 223.73-0.88L223.73-0.88L223.73-0.88Q220.28-3.06 220.28-6.37L220.28-6.37L220.28-6.37Q220.28-12.29 224.90-13.78L224.90-13.78L224.90-13.78Q226.20-14.24 228.18-14.24L228.18-14.24L228.18-14.24Q230.16-14.24 232.44-13.39L232.44-13.39L232.44-13.39Q231.40-10.72 231.40-8.32L231.40-8.32L231.40-8.32Q231.40-3.12 235.10-3.12L235.10-3.12L235.10-3.12Q237.51-3.12 239.49-4.88L239.49-4.88L239.49-4.88Q241.47-6.63 241.47-8.61L241.47-8.61L241.47-8.61Q241.47-10.60 240.21-12.03L240.21-12.03L240.21-12.03Q238.94-13.46 237.06-14.59L237.06-14.59L237.06-14.59Q235.17-15.73 232.99-16.84L232.99-16.84L232.99-16.84Q230.81-17.94 228.93-19.50L228.93-19.50L228.93-19.50Q224.51-23.07 224.51-28.80L224.51-28.80L224.51-28.80Q224.51-32.50 226.33-35.39L226.33-35.39L226.33-35.39Q228.15-38.29 231.07-40.23L231.07-40.23L231.07-40.23Q236.93-44.20 244.11-44.20L244.11-44.20L244.11-44.20Q251.29-44.20 254.77-42.05L254.77-42.05L254.77-42.05Q258.25-39.91 258.25-36.27L258.25-36.27L258.25-36.27Q258.25-33.09 255.78-31.07L255.78-31.07L255.78-31.07Q253.63-29.38 251.03-29.38L251.03-29.38L251.03-29.38Q248.43-29.38 246.61-30.03Z" fill="#444"></path></g></g><style>text {
  font-size: 64px;
  font-family: Arial Black;
  dominant-baseline: central;
  text-anchor: middle;
}</style></svg>