<svg xmlns="http://www.w3.org/2000/svg" version="1.1" xmlns:xlink="http://www.w3.org/1999/xlink" xmlns:svgjs="http://svgjs.dev/svgjs" width="1440" height="560" preserveAspectRatio="none" viewBox="0 0 1440 560"><g mask="url(&quot;#SvgjsMask1000&quot;)" fill="none"><rect width="1440" height="560" x="0" y="0" fill="#0e2a47"></rect><path d="M0,606.171C114.549,594.385,228.18,567.72,321.435,500.163C411.739,434.744,459.713,332.214,513.219,234.379C570.853,128.996,655.627,26.862,645.751,-92.845C635.737,-214.219,540.87,-307.521,460.93,-399.398C381.137,-491.105,302.251,-599.184,183.319,-624.328C66.21,-649.086,-46.796,-579.745,-155.542,-529.727C-250.612,-485.999,-328.262,-421.564,-407.107,-352.761C-498.889,-272.668,-631.57,-213.73,-654.708,-94.133C-677.843,25.449,-569.788,126.341,-521.426,238.127C-471.853,352.712,-468.953,498.995,-366.953,570.99C-264.488,643.314,-124.76,619.007,0,606.171" fill="#0b2239"></path><path d="M1440 1154.421C1549.285 1144.217 1600.169 1012.044 1695.056 956.875 1796.587 897.8430000000001 1953.609 923.052 2012.603 821.499 2070.773 721.365 2005.527 593.994 1969.866 483.817 1939.0230000000001 388.525 1874.845 314.297 1821.085 229.788 1756.643 128.488 1732.311-13.162000000000035 1622.6390000000001-62.011999999999944 1512.423-111.10500000000002 1386.825-49.355999999999995 1271.1109999999999-15.182000000000016 1155.569 18.94100000000003 1012.014 32.412000000000035 951.0550000000001 136.327 889.56 241.156 988.014 372.253 973.078 492.867 958.606 609.739 827.397 710.863 866.14 822.073 904.317 931.656 1051.962 949.3879999999999 1152.38 1007.5450000000001 1247.461 1062.6109999999999 1330.6 1164.636 1440 1154.421" fill="#113255"></path></g><defs><mask id="SvgjsMask1000"><rect width="1440" height="560" fill="#ffffff"></rect></mask></defs></svg>